<?xml version="1.0" encoding="utf-8" standalone="no"?>
<!DOCTYPE svg PUBLIC "-//W3C//DTD SVG 1.1//EN"
  "http://www.w3.org/Graphics/SVG/1.1/DTD/svg11.dtd">
<svg xmlns:xlink="http://www.w3.org/1999/xlink" width="460.8pt" height="345.6pt" viewBox="0 0 460.8 345.6" xmlns="http://www.w3.org/2000/svg" version="1.1">
 <metadata>
  <rdf:RDF xmlns:dc="http://purl.org/dc/elements/1.1/" xmlns:cc="http://creativecommons.org/ns#" xmlns:rdf="http://www.w3.org/1999/02/22-rdf-syntax-ns#">
   <cc:Work>
    <dc:type rdf:resource="http://purl.org/dc/dcmitype/StillImage"/>
    <dc:date>2024-12-02T11:11:52.299635</dc:date>
    <dc:format>image/svg+xml</dc:format>
    <dc:creator>
     <cc:Agent>
      <dc:title>Matplotlib v3.8.4, https://matplotlib.org/</dc:title>
     </cc:Agent>
    </dc:creator>
   </cc:Work>
  </rdf:RDF>
 </metadata>
 <defs>
  <style type="text/css">*{stroke-linejoin: round; stroke-linecap: butt}</style>
 </defs>
 <g id="figure_1">
  <g id="patch_1">
   <path d="M 0 345.6 
L 460.8 345.6 
L 460.8 0 
L 0 0 
z
" style="fill: #ffffff"/>
  </g>
  <g id="axes_1">
   <g id="patch_2">
    <path d="M 57.6 307.584 
L 414.72 307.584 
L 414.72 41.472 
L 57.6 41.472 
z
" style="fill: #ffffff"/>
   </g>
   <g id="matplotlib.axis_1">
    <g id="xtick_1">
     <g id="line2d_1">
      <path d="M 61.033846 307.584 
L 61.033846 41.472 
" clip-path="url(#p6e60904287)" style="fill: none; stroke: #b0b0b0; stroke-width: 0.8; stroke-linecap: square"/>
     </g>
     <g id="line2d_2">
      <defs>
       <path id="m16b66a8592" d="M 0 0 
L 0 3.5 
" style="stroke: #000000; stroke-width: 0.8"/>
      </defs>
      <g>
       <use xlink:href="#m16b66a8592" x="61.033846" y="307.584" style="stroke: #000000; stroke-width: 0.8"/>
      </g>
     </g>
     <g id="text_1">
      <!-- 10 -->
      <g transform="translate(54.671346 322.182437) scale(0.1 -0.1)">
       <defs>
        <path id="DejaVuSans-31" d="M 794 531 
L 1825 531 
L 1825 4091 
L 703 3866 
L 703 4441 
L 1819 4666 
L 2450 4666 
L 2450 531 
L 3481 531 
L 3481 0 
L 794 0 
L 794 531 
z
" transform="scale(0.015625)"/>
        <path id="DejaVuSans-30" d="M 2034 4250 
Q 1547 4250 1301 3770 
Q 1056 3291 1056 2328 
Q 1056 1369 1301 889 
Q 1547 409 2034 409 
Q 2525 409 2770 889 
Q 3016 1369 3016 2328 
Q 3016 3291 2770 3770 
Q 2525 4250 2034 4250 
z
M 2034 4750 
Q 2819 4750 3233 4129 
Q 3647 3509 3647 2328 
Q 3647 1150 3233 529 
Q 2819 -91 2034 -91 
Q 1250 -91 836 529 
Q 422 1150 422 2328 
Q 422 3509 836 4129 
Q 1250 4750 2034 4750 
z
" transform="scale(0.015625)"/>
       </defs>
       <use xlink:href="#DejaVuSans-31"/>
       <use xlink:href="#DejaVuSans-30" x="63.623047"/>
      </g>
     </g>
    </g>
    <g id="xtick_2">
     <g id="line2d_3">
      <path d="M 95.372308 307.584 
L 95.372308 41.472 
" clip-path="url(#p6e60904287)" style="fill: none; stroke: #b0b0b0; stroke-width: 0.8; stroke-linecap: square"/>
     </g>
     <g id="line2d_4">
      <g>
       <use xlink:href="#m16b66a8592" x="95.372308" y="307.584" style="stroke: #000000; stroke-width: 0.8"/>
      </g>
     </g>
     <g id="text_2">
      <!-- 15 -->
      <g transform="translate(89.009808 322.182437) scale(0.1 -0.1)">
       <defs>
        <path id="DejaVuSans-35" d="M 691 4666 
L 3169 4666 
L 3169 4134 
L 1269 4134 
L 1269 2991 
Q 1406 3038 1543 3061 
Q 1681 3084 1819 3084 
Q 2600 3084 3056 2656 
Q 3513 2228 3513 1497 
Q 3513 744 3044 326 
Q 2575 -91 1722 -91 
Q 1428 -91 1123 -41 
Q 819 9 494 109 
L 494 744 
Q 775 591 1075 516 
Q 1375 441 1709 441 
Q 2250 441 2565 725 
Q 2881 1009 2881 1497 
Q 2881 1984 2565 2268 
Q 2250 2553 1709 2553 
Q 1456 2553 1204 2497 
Q 953 2441 691 2322 
L 691 4666 
z
" transform="scale(0.015625)"/>
       </defs>
       <use xlink:href="#DejaVuSans-31"/>
       <use xlink:href="#DejaVuSans-35" x="63.623047"/>
      </g>
     </g>
    </g>
    <g id="xtick_3">
     <g id="line2d_5">
      <path d="M 129.710769 307.584 
L 129.710769 41.472 
" clip-path="url(#p6e60904287)" style="fill: none; stroke: #b0b0b0; stroke-width: 0.8; stroke-linecap: square"/>
     </g>
     <g id="line2d_6">
      <g>
       <use xlink:href="#m16b66a8592" x="129.710769" y="307.584" style="stroke: #000000; stroke-width: 0.8"/>
      </g>
     </g>
     <g id="text_3">
      <!-- 20 -->
      <g transform="translate(123.348269 322.182437) scale(0.1 -0.1)">
       <defs>
        <path id="DejaVuSans-32" d="M 1228 531 
L 3431 531 
L 3431 0 
L 469 0 
L 469 531 
Q 828 903 1448 1529 
Q 2069 2156 2228 2338 
Q 2531 2678 2651 2914 
Q 2772 3150 2772 3378 
Q 2772 3750 2511 3984 
Q 2250 4219 1831 4219 
Q 1534 4219 1204 4116 
Q 875 4013 500 3803 
L 500 4441 
Q 881 4594 1212 4672 
Q 1544 4750 1819 4750 
Q 2544 4750 2975 4387 
Q 3406 4025 3406 3419 
Q 3406 3131 3298 2873 
Q 3191 2616 2906 2266 
Q 2828 2175 2409 1742 
Q 1991 1309 1228 531 
z
" transform="scale(0.015625)"/>
       </defs>
       <use xlink:href="#DejaVuSans-32"/>
       <use xlink:href="#DejaVuSans-30" x="63.623047"/>
      </g>
     </g>
    </g>
    <g id="xtick_4">
     <g id="line2d_7">
      <path d="M 164.049231 307.584 
L 164.049231 41.472 
" clip-path="url(#p6e60904287)" style="fill: none; stroke: #b0b0b0; stroke-width: 0.8; stroke-linecap: square"/>
     </g>
     <g id="line2d_8">
      <g>
       <use xlink:href="#m16b66a8592" x="164.049231" y="307.584" style="stroke: #000000; stroke-width: 0.8"/>
      </g>
     </g>
     <g id="text_4">
      <!-- 25 -->
      <g transform="translate(157.686731 322.182437) scale(0.1 -0.1)">
       <use xlink:href="#DejaVuSans-32"/>
       <use xlink:href="#DejaVuSans-35" x="63.623047"/>
      </g>
     </g>
    </g>
    <g id="xtick_5">
     <g id="line2d_9">
      <path d="M 198.387692 307.584 
L 198.387692 41.472 
" clip-path="url(#p6e60904287)" style="fill: none; stroke: #b0b0b0; stroke-width: 0.8; stroke-linecap: square"/>
     </g>
     <g id="line2d_10">
      <g>
       <use xlink:href="#m16b66a8592" x="198.387692" y="307.584" style="stroke: #000000; stroke-width: 0.8"/>
      </g>
     </g>
     <g id="text_5">
      <!-- 30 -->
      <g transform="translate(192.025192 322.182437) scale(0.1 -0.1)">
       <defs>
        <path id="DejaVuSans-33" d="M 2597 2516 
Q 3050 2419 3304 2112 
Q 3559 1806 3559 1356 
Q 3559 666 3084 287 
Q 2609 -91 1734 -91 
Q 1441 -91 1130 -33 
Q 819 25 488 141 
L 488 750 
Q 750 597 1062 519 
Q 1375 441 1716 441 
Q 2309 441 2620 675 
Q 2931 909 2931 1356 
Q 2931 1769 2642 2001 
Q 2353 2234 1838 2234 
L 1294 2234 
L 1294 2753 
L 1863 2753 
Q 2328 2753 2575 2939 
Q 2822 3125 2822 3475 
Q 2822 3834 2567 4026 
Q 2313 4219 1838 4219 
Q 1578 4219 1281 4162 
Q 984 4106 628 3988 
L 628 4550 
Q 988 4650 1302 4700 
Q 1616 4750 1894 4750 
Q 2613 4750 3031 4423 
Q 3450 4097 3450 3541 
Q 3450 3153 3228 2886 
Q 3006 2619 2597 2516 
z
" transform="scale(0.015625)"/>
       </defs>
       <use xlink:href="#DejaVuSans-33"/>
       <use xlink:href="#DejaVuSans-30" x="63.623047"/>
      </g>
     </g>
    </g>
    <g id="xtick_6">
     <g id="line2d_11">
      <path d="M 232.726154 307.584 
L 232.726154 41.472 
" clip-path="url(#p6e60904287)" style="fill: none; stroke: #b0b0b0; stroke-width: 0.8; stroke-linecap: square"/>
     </g>
     <g id="line2d_12">
      <g>
       <use xlink:href="#m16b66a8592" x="232.726154" y="307.584" style="stroke: #000000; stroke-width: 0.8"/>
      </g>
     </g>
     <g id="text_6">
      <!-- 35 -->
      <g transform="translate(226.363654 322.182437) scale(0.1 -0.1)">
       <use xlink:href="#DejaVuSans-33"/>
       <use xlink:href="#DejaVuSans-35" x="63.623047"/>
      </g>
     </g>
    </g>
    <g id="xtick_7">
     <g id="line2d_13">
      <path d="M 267.064615 307.584 
L 267.064615 41.472 
" clip-path="url(#p6e60904287)" style="fill: none; stroke: #b0b0b0; stroke-width: 0.8; stroke-linecap: square"/>
     </g>
     <g id="line2d_14">
      <g>
       <use xlink:href="#m16b66a8592" x="267.064615" y="307.584" style="stroke: #000000; stroke-width: 0.8"/>
      </g>
     </g>
     <g id="text_7">
      <!-- 40 -->
      <g transform="translate(260.702115 322.182437) scale(0.1 -0.1)">
       <defs>
        <path id="DejaVuSans-34" d="M 2419 4116 
L 825 1625 
L 2419 1625 
L 2419 4116 
z
M 2253 4666 
L 3047 4666 
L 3047 1625 
L 3713 1625 
L 3713 1100 
L 3047 1100 
L 3047 0 
L 2419 0 
L 2419 1100 
L 313 1100 
L 313 1709 
L 2253 4666 
z
" transform="scale(0.015625)"/>
       </defs>
       <use xlink:href="#DejaVuSans-34"/>
       <use xlink:href="#DejaVuSans-30" x="63.623047"/>
      </g>
     </g>
    </g>
    <g id="xtick_8">
     <g id="line2d_15">
      <path d="M 301.403077 307.584 
L 301.403077 41.472 
" clip-path="url(#p6e60904287)" style="fill: none; stroke: #b0b0b0; stroke-width: 0.8; stroke-linecap: square"/>
     </g>
     <g id="line2d_16">
      <g>
       <use xlink:href="#m16b66a8592" x="301.403077" y="307.584" style="stroke: #000000; stroke-width: 0.8"/>
      </g>
     </g>
     <g id="text_8">
      <!-- 45 -->
      <g transform="translate(295.040577 322.182437) scale(0.1 -0.1)">
       <use xlink:href="#DejaVuSans-34"/>
       <use xlink:href="#DejaVuSans-35" x="63.623047"/>
      </g>
     </g>
    </g>
    <g id="xtick_9">
     <g id="line2d_17">
      <path d="M 335.741538 307.584 
L 335.741538 41.472 
" clip-path="url(#p6e60904287)" style="fill: none; stroke: #b0b0b0; stroke-width: 0.8; stroke-linecap: square"/>
     </g>
     <g id="line2d_18">
      <g>
       <use xlink:href="#m16b66a8592" x="335.741538" y="307.584" style="stroke: #000000; stroke-width: 0.8"/>
      </g>
     </g>
     <g id="text_9">
      <!-- 50 -->
      <g transform="translate(329.379038 322.182437) scale(0.1 -0.1)">
       <use xlink:href="#DejaVuSans-35"/>
       <use xlink:href="#DejaVuSans-30" x="63.623047"/>
      </g>
     </g>
    </g>
    <g id="xtick_10">
     <g id="line2d_19">
      <path d="M 370.08 307.584 
L 370.08 41.472 
" clip-path="url(#p6e60904287)" style="fill: none; stroke: #b0b0b0; stroke-width: 0.8; stroke-linecap: square"/>
     </g>
     <g id="line2d_20">
      <g>
       <use xlink:href="#m16b66a8592" x="370.08" y="307.584" style="stroke: #000000; stroke-width: 0.8"/>
      </g>
     </g>
     <g id="text_10">
      <!-- 55 -->
      <g transform="translate(363.7175 322.182437) scale(0.1 -0.1)">
       <use xlink:href="#DejaVuSans-35"/>
       <use xlink:href="#DejaVuSans-35" x="63.623047"/>
      </g>
     </g>
    </g>
    <g id="xtick_11">
     <g id="line2d_21">
      <path d="M 404.418462 307.584 
L 404.418462 41.472 
" clip-path="url(#p6e60904287)" style="fill: none; stroke: #b0b0b0; stroke-width: 0.8; stroke-linecap: square"/>
     </g>
     <g id="line2d_22">
      <g>
       <use xlink:href="#m16b66a8592" x="404.418462" y="307.584" style="stroke: #000000; stroke-width: 0.8"/>
      </g>
     </g>
     <g id="text_11">
      <!-- 60 -->
      <g transform="translate(398.055962 322.182437) scale(0.1 -0.1)">
       <defs>
        <path id="DejaVuSans-36" d="M 2113 2584 
Q 1688 2584 1439 2293 
Q 1191 2003 1191 1497 
Q 1191 994 1439 701 
Q 1688 409 2113 409 
Q 2538 409 2786 701 
Q 3034 994 3034 1497 
Q 3034 2003 2786 2293 
Q 2538 2584 2113 2584 
z
M 3366 4563 
L 3366 3988 
Q 3128 4100 2886 4159 
Q 2644 4219 2406 4219 
Q 1781 4219 1451 3797 
Q 1122 3375 1075 2522 
Q 1259 2794 1537 2939 
Q 1816 3084 2150 3084 
Q 2853 3084 3261 2657 
Q 3669 2231 3669 1497 
Q 3669 778 3244 343 
Q 2819 -91 2113 -91 
Q 1303 -91 875 529 
Q 447 1150 447 2328 
Q 447 3434 972 4092 
Q 1497 4750 2381 4750 
Q 2619 4750 2861 4703 
Q 3103 4656 3366 4563 
z
" transform="scale(0.015625)"/>
       </defs>
       <use xlink:href="#DejaVuSans-36"/>
       <use xlink:href="#DejaVuSans-30" x="63.623047"/>
      </g>
     </g>
    </g>
    <g id="xtick_12">
     <g id="line2d_23">
      <defs>
       <path id="mec7011213b" d="M 0 0 
L 0 2 
" style="stroke: #000000; stroke-width: 0.6"/>
      </defs>
      <g>
       <use xlink:href="#mec7011213b" x="67.901538" y="307.584" style="stroke: #000000; stroke-width: 0.6"/>
      </g>
     </g>
    </g>
    <g id="xtick_13">
     <g id="line2d_24">
      <g>
       <use xlink:href="#mec7011213b" x="74.769231" y="307.584" style="stroke: #000000; stroke-width: 0.6"/>
      </g>
     </g>
    </g>
    <g id="xtick_14">
     <g id="line2d_25">
      <g>
       <use xlink:href="#mec7011213b" x="81.636923" y="307.584" style="stroke: #000000; stroke-width: 0.6"/>
      </g>
     </g>
    </g>
    <g id="xtick_15">
     <g id="line2d_26">
      <g>
       <use xlink:href="#mec7011213b" x="88.504615" y="307.584" style="stroke: #000000; stroke-width: 0.6"/>
      </g>
     </g>
    </g>
    <g id="xtick_16">
     <g id="line2d_27">
      <g>
       <use xlink:href="#mec7011213b" x="102.24" y="307.584" style="stroke: #000000; stroke-width: 0.6"/>
      </g>
     </g>
    </g>
    <g id="xtick_17">
     <g id="line2d_28">
      <g>
       <use xlink:href="#mec7011213b" x="109.107692" y="307.584" style="stroke: #000000; stroke-width: 0.6"/>
      </g>
     </g>
    </g>
    <g id="xtick_18">
     <g id="line2d_29">
      <g>
       <use xlink:href="#mec7011213b" x="115.975385" y="307.584" style="stroke: #000000; stroke-width: 0.6"/>
      </g>
     </g>
    </g>
    <g id="xtick_19">
     <g id="line2d_30">
      <g>
       <use xlink:href="#mec7011213b" x="122.843077" y="307.584" style="stroke: #000000; stroke-width: 0.6"/>
      </g>
     </g>
    </g>
    <g id="xtick_20">
     <g id="line2d_31">
      <g>
       <use xlink:href="#mec7011213b" x="136.578462" y="307.584" style="stroke: #000000; stroke-width: 0.6"/>
      </g>
     </g>
    </g>
    <g id="xtick_21">
     <g id="line2d_32">
      <g>
       <use xlink:href="#mec7011213b" x="143.446154" y="307.584" style="stroke: #000000; stroke-width: 0.6"/>
      </g>
     </g>
    </g>
    <g id="xtick_22">
     <g id="line2d_33">
      <g>
       <use xlink:href="#mec7011213b" x="150.313846" y="307.584" style="stroke: #000000; stroke-width: 0.6"/>
      </g>
     </g>
    </g>
    <g id="xtick_23">
     <g id="line2d_34">
      <g>
       <use xlink:href="#mec7011213b" x="157.181538" y="307.584" style="stroke: #000000; stroke-width: 0.6"/>
      </g>
     </g>
    </g>
    <g id="xtick_24">
     <g id="line2d_35">
      <g>
       <use xlink:href="#mec7011213b" x="170.916923" y="307.584" style="stroke: #000000; stroke-width: 0.6"/>
      </g>
     </g>
    </g>
    <g id="xtick_25">
     <g id="line2d_36">
      <g>
       <use xlink:href="#mec7011213b" x="177.784615" y="307.584" style="stroke: #000000; stroke-width: 0.6"/>
      </g>
     </g>
    </g>
    <g id="xtick_26">
     <g id="line2d_37">
      <g>
       <use xlink:href="#mec7011213b" x="184.652308" y="307.584" style="stroke: #000000; stroke-width: 0.6"/>
      </g>
     </g>
    </g>
    <g id="xtick_27">
     <g id="line2d_38">
      <g>
       <use xlink:href="#mec7011213b" x="191.52" y="307.584" style="stroke: #000000; stroke-width: 0.6"/>
      </g>
     </g>
    </g>
    <g id="xtick_28">
     <g id="line2d_39">
      <g>
       <use xlink:href="#mec7011213b" x="205.255385" y="307.584" style="stroke: #000000; stroke-width: 0.6"/>
      </g>
     </g>
    </g>
    <g id="xtick_29">
     <g id="line2d_40">
      <g>
       <use xlink:href="#mec7011213b" x="212.123077" y="307.584" style="stroke: #000000; stroke-width: 0.6"/>
      </g>
     </g>
    </g>
    <g id="xtick_30">
     <g id="line2d_41">
      <g>
       <use xlink:href="#mec7011213b" x="218.990769" y="307.584" style="stroke: #000000; stroke-width: 0.6"/>
      </g>
     </g>
    </g>
    <g id="xtick_31">
     <g id="line2d_42">
      <g>
       <use xlink:href="#mec7011213b" x="225.858462" y="307.584" style="stroke: #000000; stroke-width: 0.6"/>
      </g>
     </g>
    </g>
    <g id="xtick_32">
     <g id="line2d_43">
      <g>
       <use xlink:href="#mec7011213b" x="239.593846" y="307.584" style="stroke: #000000; stroke-width: 0.6"/>
      </g>
     </g>
    </g>
    <g id="xtick_33">
     <g id="line2d_44">
      <g>
       <use xlink:href="#mec7011213b" x="246.461538" y="307.584" style="stroke: #000000; stroke-width: 0.6"/>
      </g>
     </g>
    </g>
    <g id="xtick_34">
     <g id="line2d_45">
      <g>
       <use xlink:href="#mec7011213b" x="253.329231" y="307.584" style="stroke: #000000; stroke-width: 0.6"/>
      </g>
     </g>
    </g>
    <g id="xtick_35">
     <g id="line2d_46">
      <g>
       <use xlink:href="#mec7011213b" x="260.196923" y="307.584" style="stroke: #000000; stroke-width: 0.6"/>
      </g>
     </g>
    </g>
    <g id="xtick_36">
     <g id="line2d_47">
      <g>
       <use xlink:href="#mec7011213b" x="273.932308" y="307.584" style="stroke: #000000; stroke-width: 0.6"/>
      </g>
     </g>
    </g>
    <g id="xtick_37">
     <g id="line2d_48">
      <g>
       <use xlink:href="#mec7011213b" x="280.8" y="307.584" style="stroke: #000000; stroke-width: 0.6"/>
      </g>
     </g>
    </g>
    <g id="xtick_38">
     <g id="line2d_49">
      <g>
       <use xlink:href="#mec7011213b" x="287.667692" y="307.584" style="stroke: #000000; stroke-width: 0.6"/>
      </g>
     </g>
    </g>
    <g id="xtick_39">
     <g id="line2d_50">
      <g>
       <use xlink:href="#mec7011213b" x="294.535385" y="307.584" style="stroke: #000000; stroke-width: 0.6"/>
      </g>
     </g>
    </g>
    <g id="xtick_40">
     <g id="line2d_51">
      <g>
       <use xlink:href="#mec7011213b" x="308.270769" y="307.584" style="stroke: #000000; stroke-width: 0.6"/>
      </g>
     </g>
    </g>
    <g id="xtick_41">
     <g id="line2d_52">
      <g>
       <use xlink:href="#mec7011213b" x="315.138462" y="307.584" style="stroke: #000000; stroke-width: 0.6"/>
      </g>
     </g>
    </g>
    <g id="xtick_42">
     <g id="line2d_53">
      <g>
       <use xlink:href="#mec7011213b" x="322.006154" y="307.584" style="stroke: #000000; stroke-width: 0.6"/>
      </g>
     </g>
    </g>
    <g id="xtick_43">
     <g id="line2d_54">
      <g>
       <use xlink:href="#mec7011213b" x="328.873846" y="307.584" style="stroke: #000000; stroke-width: 0.6"/>
      </g>
     </g>
    </g>
    <g id="xtick_44">
     <g id="line2d_55">
      <g>
       <use xlink:href="#mec7011213b" x="342.609231" y="307.584" style="stroke: #000000; stroke-width: 0.6"/>
      </g>
     </g>
    </g>
    <g id="xtick_45">
     <g id="line2d_56">
      <g>
       <use xlink:href="#mec7011213b" x="349.476923" y="307.584" style="stroke: #000000; stroke-width: 0.6"/>
      </g>
     </g>
    </g>
    <g id="xtick_46">
     <g id="line2d_57">
      <g>
       <use xlink:href="#mec7011213b" x="356.344615" y="307.584" style="stroke: #000000; stroke-width: 0.6"/>
      </g>
     </g>
    </g>
    <g id="xtick_47">
     <g id="line2d_58">
      <g>
       <use xlink:href="#mec7011213b" x="363.212308" y="307.584" style="stroke: #000000; stroke-width: 0.6"/>
      </g>
     </g>
    </g>
    <g id="xtick_48">
     <g id="line2d_59">
      <g>
       <use xlink:href="#mec7011213b" x="376.947692" y="307.584" style="stroke: #000000; stroke-width: 0.6"/>
      </g>
     </g>
    </g>
    <g id="xtick_49">
     <g id="line2d_60">
      <g>
       <use xlink:href="#mec7011213b" x="383.815385" y="307.584" style="stroke: #000000; stroke-width: 0.6"/>
      </g>
     </g>
    </g>
    <g id="xtick_50">
     <g id="line2d_61">
      <g>
       <use xlink:href="#mec7011213b" x="390.683077" y="307.584" style="stroke: #000000; stroke-width: 0.6"/>
      </g>
     </g>
    </g>
    <g id="xtick_51">
     <g id="line2d_62">
      <g>
       <use xlink:href="#mec7011213b" x="397.550769" y="307.584" style="stroke: #000000; stroke-width: 0.6"/>
      </g>
     </g>
    </g>
    <g id="xtick_52">
     <g id="line2d_63">
      <g>
       <use xlink:href="#mec7011213b" x="411.286154" y="307.584" style="stroke: #000000; stroke-width: 0.6"/>
      </g>
     </g>
    </g>
   </g>
   <g id="matplotlib.axis_2">
    <g id="ytick_1">
     <g id="line2d_64">
      <path d="M 57.6 307.584 
L 414.72 307.584 
" clip-path="url(#p6e60904287)" style="fill: none; stroke: #b0b0b0; stroke-width: 0.8; stroke-linecap: square"/>
     </g>
     <g id="line2d_65">
      <defs>
       <path id="m4dde298e64" d="M 0 0 
L -3.5 0 
" style="stroke: #000000; stroke-width: 0.8"/>
      </defs>
      <g>
       <use xlink:href="#m4dde298e64" x="57.6" y="307.584" style="stroke: #000000; stroke-width: 0.8"/>
      </g>
     </g>
     <g id="text_12">
      <!-- 0 -->
      <g transform="translate(44.2375 311.383219) scale(0.1 -0.1)">
       <use xlink:href="#DejaVuSans-30"/>
      </g>
     </g>
    </g>
    <g id="ytick_2">
     <g id="line2d_66">
      <path d="M 57.6 275.904 
L 414.72 275.904 
" clip-path="url(#p6e60904287)" style="fill: none; stroke: #b0b0b0; stroke-width: 0.8; stroke-linecap: square"/>
     </g>
     <g id="line2d_67">
      <g>
       <use xlink:href="#m4dde298e64" x="57.6" y="275.904" style="stroke: #000000; stroke-width: 0.8"/>
      </g>
     </g>
     <g id="text_13">
      <!-- 1 -->
      <g transform="translate(44.2375 279.703219) scale(0.1 -0.1)">
       <use xlink:href="#DejaVuSans-31"/>
      </g>
     </g>
    </g>
    <g id="ytick_3">
     <g id="line2d_68">
      <path d="M 57.6 244.224 
L 414.72 244.224 
" clip-path="url(#p6e60904287)" style="fill: none; stroke: #b0b0b0; stroke-width: 0.8; stroke-linecap: square"/>
     </g>
     <g id="line2d_69">
      <g>
       <use xlink:href="#m4dde298e64" x="57.6" y="244.224" style="stroke: #000000; stroke-width: 0.8"/>
      </g>
     </g>
     <g id="text_14">
      <!-- 2 -->
      <g transform="translate(44.2375 248.023219) scale(0.1 -0.1)">
       <use xlink:href="#DejaVuSans-32"/>
      </g>
     </g>
    </g>
    <g id="ytick_4">
     <g id="line2d_70">
      <path d="M 57.6 212.544 
L 414.72 212.544 
" clip-path="url(#p6e60904287)" style="fill: none; stroke: #b0b0b0; stroke-width: 0.8; stroke-linecap: square"/>
     </g>
     <g id="line2d_71">
      <g>
       <use xlink:href="#m4dde298e64" x="57.6" y="212.544" style="stroke: #000000; stroke-width: 0.8"/>
      </g>
     </g>
     <g id="text_15">
      <!-- 3 -->
      <g transform="translate(44.2375 216.343219) scale(0.1 -0.1)">
       <use xlink:href="#DejaVuSans-33"/>
      </g>
     </g>
    </g>
    <g id="ytick_5">
     <g id="line2d_72">
      <path d="M 57.6 180.864 
L 414.72 180.864 
" clip-path="url(#p6e60904287)" style="fill: none; stroke: #b0b0b0; stroke-width: 0.8; stroke-linecap: square"/>
     </g>
     <g id="line2d_73">
      <g>
       <use xlink:href="#m4dde298e64" x="57.6" y="180.864" style="stroke: #000000; stroke-width: 0.8"/>
      </g>
     </g>
     <g id="text_16">
      <!-- 4 -->
      <g transform="translate(44.2375 184.663219) scale(0.1 -0.1)">
       <use xlink:href="#DejaVuSans-34"/>
      </g>
     </g>
    </g>
    <g id="ytick_6">
     <g id="line2d_74">
      <path d="M 57.6 149.184 
L 414.72 149.184 
" clip-path="url(#p6e60904287)" style="fill: none; stroke: #b0b0b0; stroke-width: 0.8; stroke-linecap: square"/>
     </g>
     <g id="line2d_75">
      <g>
       <use xlink:href="#m4dde298e64" x="57.6" y="149.184" style="stroke: #000000; stroke-width: 0.8"/>
      </g>
     </g>
     <g id="text_17">
      <!-- 5 -->
      <g transform="translate(44.2375 152.983219) scale(0.1 -0.1)">
       <use xlink:href="#DejaVuSans-35"/>
      </g>
     </g>
    </g>
    <g id="ytick_7">
     <g id="line2d_76">
      <path d="M 57.6 117.504 
L 414.72 117.504 
" clip-path="url(#p6e60904287)" style="fill: none; stroke: #b0b0b0; stroke-width: 0.8; stroke-linecap: square"/>
     </g>
     <g id="line2d_77">
      <g>
       <use xlink:href="#m4dde298e64" x="57.6" y="117.504" style="stroke: #000000; stroke-width: 0.8"/>
      </g>
     </g>
     <g id="text_18">
      <!-- 6 -->
      <g transform="translate(44.2375 121.303219) scale(0.1 -0.1)">
       <use xlink:href="#DejaVuSans-36"/>
      </g>
     </g>
    </g>
    <g id="ytick_8">
     <g id="line2d_78">
      <path d="M 57.6 85.824 
L 414.72 85.824 
" clip-path="url(#p6e60904287)" style="fill: none; stroke: #b0b0b0; stroke-width: 0.8; stroke-linecap: square"/>
     </g>
     <g id="line2d_79">
      <g>
       <use xlink:href="#m4dde298e64" x="57.6" y="85.824" style="stroke: #000000; stroke-width: 0.8"/>
      </g>
     </g>
     <g id="text_19">
      <!-- 7 -->
      <g transform="translate(44.2375 89.623219) scale(0.1 -0.1)">
       <defs>
        <path id="DejaVuSans-37" d="M 525 4666 
L 3525 4666 
L 3525 4397 
L 1831 0 
L 1172 0 
L 2766 4134 
L 525 4134 
L 525 4666 
z
" transform="scale(0.015625)"/>
       </defs>
       <use xlink:href="#DejaVuSans-37"/>
      </g>
     </g>
    </g>
    <g id="ytick_9">
     <g id="line2d_80">
      <path d="M 57.6 54.144 
L 414.72 54.144 
" clip-path="url(#p6e60904287)" style="fill: none; stroke: #b0b0b0; stroke-width: 0.8; stroke-linecap: square"/>
     </g>
     <g id="line2d_81">
      <g>
       <use xlink:href="#m4dde298e64" x="57.6" y="54.144" style="stroke: #000000; stroke-width: 0.8"/>
      </g>
     </g>
     <g id="text_20">
      <!-- 8 -->
      <g transform="translate(44.2375 57.943219) scale(0.1 -0.1)">
       <defs>
        <path id="DejaVuSans-38" d="M 2034 2216 
Q 1584 2216 1326 1975 
Q 1069 1734 1069 1313 
Q 1069 891 1326 650 
Q 1584 409 2034 409 
Q 2484 409 2743 651 
Q 3003 894 3003 1313 
Q 3003 1734 2745 1975 
Q 2488 2216 2034 2216 
z
M 1403 2484 
Q 997 2584 770 2862 
Q 544 3141 544 3541 
Q 544 4100 942 4425 
Q 1341 4750 2034 4750 
Q 2731 4750 3128 4425 
Q 3525 4100 3525 3541 
Q 3525 3141 3298 2862 
Q 3072 2584 2669 2484 
Q 3125 2378 3379 2068 
Q 3634 1759 3634 1313 
Q 3634 634 3220 271 
Q 2806 -91 2034 -91 
Q 1263 -91 848 271 
Q 434 634 434 1313 
Q 434 1759 690 2068 
Q 947 2378 1403 2484 
z
M 1172 3481 
Q 1172 3119 1398 2916 
Q 1625 2713 2034 2713 
Q 2441 2713 2670 2916 
Q 2900 3119 2900 3481 
Q 2900 3844 2670 4047 
Q 2441 4250 2034 4250 
Q 1625 4250 1398 4047 
Q 1172 3844 1172 3481 
z
" transform="scale(0.015625)"/>
       </defs>
       <use xlink:href="#DejaVuSans-38"/>
      </g>
     </g>
    </g>
   </g>
   <g id="patch_3">
    <path d="M 57.6 307.584 
L 57.6 41.472 
" style="fill: none; stroke: #000000; stroke-width: 0.8; stroke-linejoin: miter; stroke-linecap: square"/>
   </g>
   <g id="patch_4">
    <path d="M 57.6 307.584 
L 414.72 307.584 
" style="fill: none; stroke: #000000; stroke-width: 0.8; stroke-linejoin: miter; stroke-linecap: square"/>
   </g>
   <g id="patch_5">
    <path d="M 78.203077 307.584 
L 85.070769 307.584 
L 85.070769 212.544 
L 78.203077 212.544 
z
" clip-path="url(#p6e60904287)" style="fill: #0d0887"/>
   </g>
   <g id="patch_6">
    <path d="M 85.070769 307.584 
L 91.938462 307.584 
L 91.938462 275.904 
L 85.070769 275.904 
z
" clip-path="url(#p6e60904287)" style="fill: #1b068d"/>
   </g>
   <g id="patch_7">
    <path d="M 91.938462 307.584 
L 98.806154 307.584 
L 98.806154 307.584 
L 91.938462 307.584 
z
" clip-path="url(#p6e60904287)" style="fill: #260591"/>
   </g>
   <g id="patch_8">
    <path d="M 98.806154 307.584 
L 105.673846 307.584 
L 105.673846 275.904 
L 98.806154 275.904 
z
" clip-path="url(#p6e60904287)" style="fill: #2f0596"/>
   </g>
   <g id="patch_9">
    <path d="M 105.673846 307.584 
L 112.541538 307.584 
L 112.541538 307.584 
L 105.673846 307.584 
z
" clip-path="url(#p6e60904287)" style="fill: #38049a"/>
   </g>
   <g id="patch_10">
    <path d="M 112.541538 307.584 
L 119.409231 307.584 
L 119.409231 307.584 
L 112.541538 307.584 
z
" clip-path="url(#p6e60904287)" style="fill: #43039e"/>
   </g>
   <g id="patch_11">
    <path d="M 119.409231 307.584 
L 126.276923 307.584 
L 126.276923 212.544 
L 119.409231 212.544 
z
" clip-path="url(#p6e60904287)" style="fill: #4b03a1"/>
   </g>
   <g id="patch_12">
    <path d="M 126.276923 307.584 
L 133.144615 307.584 
L 133.144615 307.584 
L 126.276923 307.584 
z
" clip-path="url(#p6e60904287)" style="fill: #5302a3"/>
   </g>
   <g id="patch_13">
    <path d="M 133.144615 307.584 
L 140.012308 307.584 
L 140.012308 307.584 
L 133.144615 307.584 
z
" clip-path="url(#p6e60904287)" style="fill: #5b01a5"/>
   </g>
   <g id="patch_14">
    <path d="M 140.012308 307.584 
L 146.88 307.584 
L 146.88 307.584 
L 140.012308 307.584 
z
" clip-path="url(#p6e60904287)" style="fill: #6400a7"/>
   </g>
   <g id="patch_15">
    <path d="M 146.88 307.584 
L 153.747692 307.584 
L 153.747692 244.224 
L 146.88 244.224 
z
" clip-path="url(#p6e60904287)" style="fill: #6c00a8"/>
   </g>
   <g id="patch_16">
    <path d="M 153.747692 307.584 
L 160.615385 307.584 
L 160.615385 244.224 
L 153.747692 244.224 
z
" clip-path="url(#p6e60904287)" style="fill: #7401a8"/>
   </g>
   <g id="patch_17">
    <path d="M 160.615385 307.584 
L 167.483077 307.584 
L 167.483077 307.584 
L 160.615385 307.584 
z
" clip-path="url(#p6e60904287)" style="fill: #7b02a8"/>
   </g>
   <g id="patch_18">
    <path d="M 167.483077 307.584 
L 174.350769 307.584 
L 174.350769 307.584 
L 167.483077 307.584 
z
" clip-path="url(#p6e60904287)" style="fill: #8305a7"/>
   </g>
   <g id="patch_19">
    <path d="M 174.350769 307.584 
L 181.218462 307.584 
L 181.218462 275.904 
L 174.350769 275.904 
z
" clip-path="url(#p6e60904287)" style="fill: #8b0aa5"/>
   </g>
   <g id="patch_20">
    <path d="M 181.218462 307.584 
L 188.086154 307.584 
L 188.086154 307.584 
L 181.218462 307.584 
z
" clip-path="url(#p6e60904287)" style="fill: #920fa3"/>
   </g>
   <g id="patch_21">
    <path d="M 188.086154 307.584 
L 194.953846 307.584 
L 194.953846 307.584 
L 188.086154 307.584 
z
" clip-path="url(#p6e60904287)" style="fill: #99159f"/>
   </g>
   <g id="patch_22">
    <path d="M 194.953846 307.584 
L 201.821538 307.584 
L 201.821538 307.584 
L 194.953846 307.584 
z
" clip-path="url(#p6e60904287)" style="fill: #a01a9c"/>
   </g>
   <g id="patch_23">
    <path d="M 201.821538 307.584 
L 208.689231 307.584 
L 208.689231 307.584 
L 201.821538 307.584 
z
" clip-path="url(#p6e60904287)" style="fill: #a72197"/>
   </g>
   <g id="patch_24">
    <path d="M 208.689231 307.584 
L 215.556923 307.584 
L 215.556923 307.584 
L 208.689231 307.584 
z
" clip-path="url(#p6e60904287)" style="fill: #ad2793"/>
   </g>
   <g id="patch_25">
    <path d="M 215.556923 307.584 
L 222.424615 307.584 
L 222.424615 244.224 
L 215.556923 244.224 
z
" clip-path="url(#p6e60904287)" style="fill: #b32c8e"/>
   </g>
   <g id="patch_26">
    <path d="M 222.424615 307.584 
L 229.292308 307.584 
L 229.292308 307.584 
L 222.424615 307.584 
z
" clip-path="url(#p6e60904287)" style="fill: #b83289"/>
   </g>
   <g id="patch_27">
    <path d="M 229.292308 307.584 
L 236.16 307.584 
L 236.16 307.584 
L 229.292308 307.584 
z
" clip-path="url(#p6e60904287)" style="fill: #be3885"/>
   </g>
   <g id="patch_28">
    <path d="M 236.16 307.584 
L 243.027692 307.584 
L 243.027692 275.904 
L 236.16 275.904 
z
" clip-path="url(#p6e60904287)" style="fill: #c43e7f"/>
   </g>
   <g id="patch_29">
    <path d="M 243.027692 307.584 
L 249.895385 307.584 
L 249.895385 275.904 
L 243.027692 275.904 
z
" clip-path="url(#p6e60904287)" style="fill: #c9447a"/>
   </g>
   <g id="patch_30">
    <path d="M 249.895385 307.584 
L 256.763077 307.584 
L 256.763077 307.584 
L 249.895385 307.584 
z
" clip-path="url(#p6e60904287)" style="fill: #cd4a76"/>
   </g>
   <g id="patch_31">
    <path d="M 256.763077 307.584 
L 263.630769 307.584 
L 263.630769 275.904 
L 256.763077 275.904 
z
" clip-path="url(#p6e60904287)" style="fill: #d24f71"/>
   </g>
   <g id="patch_32">
    <path d="M 263.630769 307.584 
L 270.498462 307.584 
L 270.498462 307.584 
L 263.630769 307.584 
z
" clip-path="url(#p6e60904287)" style="fill: #d7566c"/>
   </g>
   <g id="patch_33">
    <path d="M 270.498462 307.584 
L 277.366154 307.584 
L 277.366154 307.584 
L 270.498462 307.584 
z
" clip-path="url(#p6e60904287)" style="fill: #db5c68"/>
   </g>
   <g id="patch_34">
    <path d="M 277.366154 307.584 
L 284.233846 307.584 
L 284.233846 307.584 
L 277.366154 307.584 
z
" clip-path="url(#p6e60904287)" style="fill: #df6263"/>
   </g>
   <g id="patch_35">
    <path d="M 284.233846 307.584 
L 291.101538 307.584 
L 291.101538 307.584 
L 284.233846 307.584 
z
" clip-path="url(#p6e60904287)" style="fill: #e3685f"/>
   </g>
   <g id="patch_36">
    <path d="M 291.101538 307.584 
L 297.969231 307.584 
L 297.969231 307.584 
L 291.101538 307.584 
z
" clip-path="url(#p6e60904287)" style="fill: #e76e5b"/>
   </g>
   <g id="patch_37">
    <path d="M 297.969231 307.584 
L 304.836923 307.584 
L 304.836923 307.584 
L 297.969231 307.584 
z
" clip-path="url(#p6e60904287)" style="fill: #eb7556"/>
   </g>
   <g id="patch_38">
    <path d="M 304.836923 307.584 
L 311.704615 307.584 
L 311.704615 307.584 
L 304.836923 307.584 
z
" clip-path="url(#p6e60904287)" style="fill: #ee7b51"/>
   </g>
   <g id="patch_39">
    <path d="M 311.704615 307.584 
L 318.572308 307.584 
L 318.572308 212.544 
L 311.704615 212.544 
z
" clip-path="url(#p6e60904287)" style="fill: #f1814d"/>
   </g>
   <g id="patch_40">
    <path d="M 318.572308 307.584 
L 325.44 307.584 
L 325.44 307.584 
L 318.572308 307.584 
z
" clip-path="url(#p6e60904287)" style="fill: #f48849"/>
   </g>
   <g id="patch_41">
    <path d="M 325.44 307.584 
L 332.307692 307.584 
L 332.307692 275.904 
L 325.44 275.904 
z
" clip-path="url(#p6e60904287)" style="fill: #f79044"/>
   </g>
   <g id="patch_42">
    <path d="M 332.307692 307.584 
L 339.175385 307.584 
L 339.175385 307.584 
L 332.307692 307.584 
z
" clip-path="url(#p6e60904287)" style="fill: #f9973f"/>
   </g>
   <g id="patch_43">
    <path d="M 339.175385 307.584 
L 346.043077 307.584 
L 346.043077 275.904 
L 339.175385 275.904 
z
" clip-path="url(#p6e60904287)" style="fill: #fa9e3b"/>
   </g>
   <g id="patch_44">
    <path d="M 346.043077 307.584 
L 352.910769 307.584 
L 352.910769 307.584 
L 346.043077 307.584 
z
" clip-path="url(#p6e60904287)" style="fill: #fca537"/>
   </g>
   <g id="patch_45">
    <path d="M 352.910769 307.584 
L 359.778462 307.584 
L 359.778462 307.584 
L 352.910769 307.584 
z
" clip-path="url(#p6e60904287)" style="fill: #fdac33"/>
   </g>
   <g id="patch_46">
    <path d="M 359.778462 307.584 
L 366.646154 307.584 
L 366.646154 307.584 
L 359.778462 307.584 
z
" clip-path="url(#p6e60904287)" style="fill: #fdb52e"/>
   </g>
   <g id="patch_47">
    <path d="M 366.646154 307.584 
L 373.513846 307.584 
L 373.513846 307.584 
L 366.646154 307.584 
z
" clip-path="url(#p6e60904287)" style="fill: #febd2a"/>
   </g>
   <g id="patch_48">
    <path d="M 373.513846 307.584 
L 380.381538 307.584 
L 380.381538 307.584 
L 373.513846 307.584 
z
" clip-path="url(#p6e60904287)" style="fill: #fdc527"/>
   </g>
   <g id="patch_49">
    <path d="M 380.381538 307.584 
L 387.249231 307.584 
L 387.249231 54.144 
L 380.381538 54.144 
z
" clip-path="url(#p6e60904287)" style="fill: #fccd25"/>
   </g>
   <g id="patch_50">
    <path d="M 387.249231 307.584 
L 394.116923 307.584 
L 394.116923 180.864 
L 387.249231 180.864 
z
" clip-path="url(#p6e60904287)" style="fill: #fbd724"/>
   </g>
   <g id="patch_51">
    <path d="M 394.116923 307.584 
L 400.984615 307.584 
L 400.984615 307.584 
L 394.116923 307.584 
z
" clip-path="url(#p6e60904287)" style="fill: #f8df25"/>
   </g>
   <g id="patch_52">
    <path d="M 400.984615 307.584 
L 407.852308 307.584 
L 407.852308 307.584 
L 400.984615 307.584 
z
" clip-path="url(#p6e60904287)" style="fill: #f6e826"/>
   </g>
   <g id="patch_53">
    <path d="M 407.852308 307.584 
L 414.72 307.584 
L 414.72 149.184 
L 407.852308 149.184 
z
" clip-path="url(#p6e60904287)" style="fill: #f3f027"/>
   </g>
  </g>
 </g>
 <defs>
  <clipPath id="p6e60904287">
   <rect x="57.6" y="41.472" width="357.12" height="266.112"/>
  </clipPath>
 </defs>
</svg>
