<!-- Created with Inkscape (http://www.inkscape.org/) --><svg xmlns:inkscape="http://www.inkscape.org/namespaces/inkscape" xmlns:sodipodi="http://sodipodi.sourceforge.net/DTD/sodipodi-0.dtd" xmlns="http://www.w3.org/2000/svg" xmlns:svg="http://www.w3.org/2000/svg" width="816.0px" height="864px" viewBox="0 0 612 648" version="1.1" id="svg1" inkscape:version="1.4 (86a8ad7, 2024-10-11)" sodipodi:docname="blank.svg">
  <sodipodi:namedview id="namedview1" pagecolor="#ffffff" bordercolor="#000000" borderopacity="0.25" inkscape:showpageshadow="2" inkscape:pageopacity="0.0" inkscape:pagecheckerboard="0" inkscape:deskcolor="#d1d1d1" inkscape:document-units="mm" inkscape:zoom="0.71891835" inkscape:cx="397.12437" inkscape:cy="561.25984" inkscape:window-width="1920" inkscape:window-height="1009" inkscape:window-x="-8" inkscape:window-y="-8" inkscape:window-maximized="1" inkscape:current-layer="layer1" showgrid="false"/>
  <defs id="defs1"/>
  <g inkscape:label="Layer 1" inkscape:groupmode="layer" id="layer1"><g><rect x="87.75" y="94.0" width="24.5" height="12" fill="none" stroke="black" ry="2"/><text x="100" y="103" font-size="10" font-family="Arial" text-anchor="middle">G6P</text></g><g><rect x="187.75" y="94.0" width="24.5" height="12" fill="none" stroke="black" ry="2"/><text x="200" y="103" font-size="10" font-family="Arial" text-anchor="middle">F6P</text></g><g><rect x="287.75" y="94.0" width="24.5" height="12" fill="none" stroke="black" ry="2"/><text x="300" y="103" font-size="10" font-family="Arial" text-anchor="middle">FDP</text></g><g><rect x="387.75" y="94.0" width="24.5" height="12" fill="none" stroke="black" ry="2"/><text x="400" y="103" font-size="10" font-family="Arial" text-anchor="middle">GAP</text></g><g><rect x="487.75" y="94.0" width="24.5" height="12" fill="none" stroke="black" ry="2"/><text x="500" y="103" font-size="10" font-family="Arial" text-anchor="middle">PYR</text></g><g><rect x="87.75" y="194.0" width="24.5" height="12" fill="none" stroke="black" ry="2"/><text x="100" y="203" font-size="10" font-family="Arial" text-anchor="middle">ATP</text></g><g><rect x="187.75" y="194.0" width="24.5" height="12" fill="none" stroke="black" ry="2"/><text x="200" y="203" font-size="10" font-family="Arial" text-anchor="middle">ADP</text></g><g><rect x="284.5" y="194.0" width="31.0" height="12" fill="none" stroke="black" ry="2"/><text x="300" y="203" font-size="10" font-family="Arial" text-anchor="middle">NADH</text></g><g><rect x="387.75" y="194.0" width="24.5" height="12" fill="none" stroke="black" ry="2"/><text x="400" y="203" font-size="10" font-family="Arial" text-anchor="middle">NAD</text></g><g><rect x="487.75" y="194.0" width="24.5" height="12" fill="none" stroke="black" ry="2"/><text x="500" y="203" font-size="10" font-family="Arial" text-anchor="middle">OAA</text></g><g><rect x="587.75" y="194.0" width="24.5" height="12" fill="none" stroke="black" ry="2"/><text x="600" y="203" font-size="10" font-family="Arial" text-anchor="middle">PEP</text></g><g><rect x="684.5" y="194.0" width="31.0" height="12" fill="none" stroke="black" ry="2"/><text x="700" y="203" font-size="10" font-family="Arial" text-anchor="middle">NADP</text></g><g><rect x="781.25" y="194.0" width="37.5" height="12" fill="none" stroke="black" ry="2"/><text x="800" y="203" font-size="10" font-family="Arial" text-anchor="middle">NADPH</text></g><g><rect x="94.25" y="294.0" width="11.5" height="12" fill="none" stroke="black" ry="2"/><text x="100" y="303" font-size="10" font-family="Arial" text-anchor="middle">P</text></g><g><rect x="187.75" y="294.0" width="24.5" height="12" fill="none" stroke="black" ry="2"/><text x="200" y="303" font-size="10" font-family="Arial" text-anchor="middle">BPG</text></g><g><rect x="287.75" y="294.0" width="24.5" height="12" fill="none" stroke="black" ry="2"/><text x="300" y="303" font-size="10" font-family="Arial" text-anchor="middle">FAD</text></g><g><rect x="381.25" y="294.0" width="37.5" height="12" fill="none" stroke="black" ry="2"/><text x="400" y="303" font-size="10" font-family="Arial" text-anchor="middle">FADH2</text></g><g><rect x="487.75" y="294.0" width="24.5" height="12" fill="none" stroke="black" ry="2"/><text x="500" y="303" font-size="10" font-family="Arial" text-anchor="middle">AMP</text></g><g><rect x="584.5" y="294.0" width="31.0" height="12" fill="none" stroke="black" ry="2"/><text x="600" y="303" font-size="10" font-family="Arial" text-anchor="middle">CAMP</text></g><g><rect x="687.75" y="294.0" width="24.5" height="12" fill="none" stroke="black" ry="2"/><text x="700" y="303" font-size="10" font-family="Arial" text-anchor="middle">DAP</text></g><g><rect x="784.5" y="294.0" width="31.0" height="12" fill="none" stroke="black" ry="2"/><text x="800" y="303" font-size="10" font-family="Arial" text-anchor="middle">PGA3</text></g><g><rect x="84.5" y="394.0" width="31.0" height="12" fill="none" stroke="black" ry="2"/><text x="100" y="403" font-size="10" font-family="Arial" text-anchor="middle">PGA2</text></g><g><rect x="184.5" y="394.0" width="31.0" height="12" fill="none" stroke="black" ry="2"/><text x="200" y="403" font-size="10" font-family="Arial" text-anchor="middle">GL6P</text></g><g><rect x="287.75" y="394.0" width="24.5" height="12" fill="none" stroke="black" ry="2"/><text x="300" y="403" font-size="10" font-family="Arial" text-anchor="middle">PGN</text></g><g><rect x="384.5" y="394.0" width="31.0" height="12" fill="none" stroke="black" ry="2"/><text x="400" y="403" font-size="10" font-family="Arial" text-anchor="middle">RU5P</text></g><g><rect x="487.75" y="394.0" width="24.5" height="12" fill="none" stroke="black" ry="2"/><text x="500" y="403" font-size="10" font-family="Arial" text-anchor="middle">X5P</text></g><g><rect x="587.75" y="394.0" width="24.5" height="12" fill="none" stroke="black" ry="2"/><text x="600" y="403" font-size="10" font-family="Arial" text-anchor="middle">R5P</text></g><g><rect x="687.75" y="394.0" width="24.5" height="12" fill="none" stroke="black" ry="2"/><text x="700" y="403" font-size="10" font-family="Arial" text-anchor="middle">E4P</text></g><g><rect x="787.75" y="394.0" width="24.5" height="12" fill="none" stroke="black" ry="2"/><text x="800" y="403" font-size="10" font-family="Arial" text-anchor="middle">S7P</text></g><g><rect x="87.75" y="494.0" width="24.5" height="12" fill="none" stroke="black" ry="2"/><text x="100" y="503" font-size="10" font-family="Arial" text-anchor="middle">MAL</text></g><g><rect x="194.25" y="494.0" width="11.5" height="12" fill="none" stroke="black" ry="2"/><text x="200" y="503" font-size="10" font-family="Arial" text-anchor="middle">Q</text></g><g><rect x="287.75" y="494.0" width="24.5" height="12" fill="none" stroke="black" ry="2"/><text x="300" y="503" font-size="10" font-family="Arial" text-anchor="middle">QH2</text></g><g><rect x="384.5" y="494.0" width="31.0" height="12" fill="none" stroke="black" ry="2"/><text x="400" y="503" font-size="10" font-family="Arial" text-anchor="middle">ICIT</text></g><g><rect x="487.75" y="494.0" width="24.5" height="12" fill="none" stroke="black" ry="2"/><text x="500" y="503" font-size="10" font-family="Arial" text-anchor="middle">AKG</text></g><g><rect x="578.0" y="494.0" width="44.0" height="12" fill="none" stroke="black" ry="2"/><text x="600" y="503" font-size="10" font-family="Arial" text-anchor="middle">SUCCOA</text></g><g><rect x="687.75" y="494.0" width="24.5" height="12" fill="none" stroke="black" ry="2"/><text x="700" y="503" font-size="10" font-family="Arial" text-anchor="middle">SUC</text></g><g><rect x="787.75" y="494.0" width="24.5" height="12" fill="none" stroke="black" ry="2"/><text x="800" y="503" font-size="10" font-family="Arial" text-anchor="middle">FUM</text></g><g><rect x="87.75" y="594.0" width="24.5" height="12" fill="none" stroke="black" ry="2"/><text x="100" y="603" font-size="10" font-family="Arial" text-anchor="middle">GLX</text></g><g><rect x="181.25" y="594.0" width="37.5" height="12" fill="none" stroke="black" ry="2"/><text x="200" y="603" font-size="10" font-family="Arial" text-anchor="middle">ACCOA</text></g><g><rect x="284.5" y="594.0" width="31.0" height="12" fill="none" stroke="black" ry="2"/><text x="300" y="603" font-size="10" font-family="Arial" text-anchor="middle">ACEx</text></g><g><rect x="387.75" y="594.0" width="24.5" height="12" fill="none" stroke="black" ry="2"/><text x="400" y="603" font-size="10" font-family="Arial" text-anchor="middle">ACP</text></g><text x="150.0" y="95.0" font-size="10" font-family="Arial" font-weight="bold" fill="red" text-anchor="middle">vPGI</text><text x="150.0" y="145.0" font-size="10" font-family="Arial" font-weight="bold" fill="red" text-anchor="middle">vPFK</text><text x="350.0" y="95.0" font-size="10" font-family="Arial" font-weight="bold" fill="red" text-anchor="middle">vFBA</text><text x="550.0" y="195.0" font-size="10" font-family="Arial" font-weight="bold" fill="red" text-anchor="middle">vTPI</text><text x="350.0" y="145.0" font-size="10" font-family="Arial" font-weight="bold" fill="red" text-anchor="middle">vGDH</text><text x="200.0" y="245.0" font-size="10" font-family="Arial" font-weight="bold" fill="red" text-anchor="middle">vPGK</text><text x="450.0" y="345.0" font-size="10" font-family="Arial" font-weight="bold" fill="red" text-anchor="middle">vGPM</text><text x="350.0" y="295.0" font-size="10" font-family="Arial" font-weight="bold" fill="red" text-anchor="middle">vENO</text><text x="400.0" y="195.0" font-size="10" font-family="Arial" font-weight="bold" fill="red" text-anchor="middle">vPYK</text><text x="400.0" y="145.0" font-size="10" font-family="Arial" font-weight="bold" fill="red" text-anchor="middle">vZWF</text><text x="250.0" y="395.0" font-size="10" font-family="Arial" font-weight="bold" fill="red" text-anchor="middle">vPGL</text><text x="500.0" y="295.0" font-size="10" font-family="Arial" font-weight="bold" fill="red" text-anchor="middle">vGND</text><text x="450.0" y="395.0" font-size="10" font-family="Arial" font-weight="bold" fill="red" text-anchor="middle">vRPE</text><text x="500.0" y="395.0" font-size="10" font-family="Arial" font-weight="bold" fill="red" text-anchor="middle">vRPI</text><text x="300.0" y="95.0" font-size="10" font-family="Arial" font-weight="bold" fill="red" text-anchor="middle">vF6P_GAP_TAL</text><text x="550.0" y="195.0" font-size="10" font-family="Arial" font-weight="bold" fill="red" text-anchor="middle">vPPC</text><text x="300.0" y="195.0" font-size="10" font-family="Arial" font-weight="bold" fill="red" text-anchor="middle">vPCK</text><text x="200.0" y="345.0" font-size="10" font-family="Arial" font-weight="bold" fill="red" text-anchor="middle">vMAD</text><text x="450.0" y="145.0" font-size="10" font-family="Arial" font-weight="bold" fill="red" text-anchor="middle">vPDH</text><text x="350.0" y="395.0" font-size="10" font-family="Arial" font-weight="bold" fill="red" text-anchor="middle">vGLT</text><text x="550.0" y="345.0" font-size="10" font-family="Arial" font-weight="bold" fill="red" text-anchor="middle">vICD</text><text x="400.0" y="345.0" font-size="10" font-family="Arial" font-weight="bold" fill="red" text-anchor="middle">vLPD</text><text x="400.0" y="345.0" font-size="10" font-family="Arial" font-weight="bold" fill="red" text-anchor="middle">vSK</text><text x="500.0" y="395.0" font-size="10" font-family="Arial" font-weight="bold" fill="red" text-anchor="middle">vSDH</text><text x="450.0" y="495.0" font-size="10" font-family="Arial" font-weight="bold" fill="red" text-anchor="middle">vFUMA</text><text x="150.0" y="495.0" font-size="10" font-family="Arial" font-weight="bold" fill="red" text-anchor="middle">vMQO</text><text x="400.0" y="345.0" font-size="10" font-family="Arial" font-weight="bold" fill="red" text-anchor="middle">vMDH</text><text x="150.0" y="245.0" font-size="10" font-family="Arial" font-weight="bold" fill="red" text-anchor="middle">vATP_syn</text><text x="350.0" y="245.0" font-size="10" font-family="Arial" font-weight="bold" fill="red" text-anchor="middle">vCYA</text><text x="550.0" y="295.0" font-size="10" font-family="Arial" font-weight="bold" fill="red" text-anchor="middle">vDOS</text><text x="300.0" y="395.0" font-size="10" font-family="Arial" font-weight="bold" fill="red" text-anchor="middle">vACK</text><text x="200.0" y="395.0" font-size="10" font-family="Arial" font-weight="bold" fill="red" text-anchor="middle">vACS</text><text x="150.0" y="445.0" font-size="10" font-family="Arial" font-weight="bold" fill="red" text-anchor="middle">vPTA</text></g>
</svg>